<svg width="24" height="24" viewBox="0 0 24 24" fill="none" xmlns="http://www.w3.org/2000/svg">
    <g clip-path="url(#clip0_496_3049)">
        <g clip-path="url(#clip1_496_3049)">
            <path d="M17 11.1H5.17004L10.63 5.64C10.98 5.29 10.98 4.72 10.63 4.37C10.28 4.02 9.71004 4.02 9.36004 4.37L2.36004 11.37C2.36004 11.37 2.36004 11.38 2.35004 11.39C2.27004 11.47 2.21004 11.56 2.17004 11.66C2.08004 11.88 2.08004 12.13 2.17004 12.35C2.21004 12.45 2.28004 12.54 2.35004 12.62C2.35004 12.62 2.35004 12.63 2.36004 12.64L9.36004 19.64C9.54004 19.82 9.77004 19.9 10 19.9C10.23 19.9 10.46 19.81 10.64 19.64C10.99 19.29 10.99 18.72 10.64 18.37L5.18004 12.91H17.01C17.51 12.91 17.91 12.51 17.91 12.01C17.91 11.51 17.51 11.11 17.01 11.11L17 11.1Z" fill="#696665"/>
        </g>
    </g>
    <defs>
        <clipPath id="clip0_496_3049">
            <rect width="24" height="24" fill="white"/>
        </clipPath>
        <clipPath id="clip1_496_3049">
            <rect width="24" height="24" fill="white"/>
        </clipPath>
    </defs>
</svg>
