<svg width="24" height="24" viewBox="0 0 24 24" fill="none" xmlns="http://www.w3.org/2000/svg">
    <g clip-path="url(#clip0_23_539)">
        <path d="M20.2929 6.67455L14.9798 2.93893C13.202 1.69028 10.798 1.69028 9.0202 2.93893L3.70707 6.67455C2.63636 7.42787 2 8.6662 2 9.98708V18.3458C2 20.9153 4.0404 22.9999 6.55556 22.9999H17.303C19.899 22.9999 22 20.8431 22 18.2013V9.9974C22 8.67652 21.3636 7.43819 20.2929 6.68487V6.67455ZM13.6162 16.8495C13.6162 17.7576 12.8889 18.5006 12 18.5006C11.1111 18.5006 10.3838 17.7576 10.3838 16.8495V14.0633C10.3838 13.1551 11.1111 12.4121 12 12.4121C12.8889 12.4121 13.6162 13.1551 13.6162 14.0633V16.8495Z" fill="#2A2A2A"/>
    </g>
    <defs>
        <clipPath id="clip0_23_539">
            <rect width="24" height="24" fill="white"/>
        </clipPath>
    </defs>
</svg>
