<svg width="24" height="24" viewBox="0 0 24 24" fill="none" xmlns="http://www.w3.org/2000/svg">
    <g clip-path="url(#clip0_23_528)">
        <path d="M17.303 23.0001H6.55556C4.0404 23.0001 2 20.9156 2 18.346V9.99762C2 8.67673 2.63636 7.4384 3.70707 6.68509L9.0202 2.93914C10.798 1.68017 13.202 1.69049 14.9798 2.93914L20.2929 6.67477C21.3636 7.42808 22 8.66641 22 9.9873V18.1912C22 20.8433 19.8889 22.9898 17.303 22.9898V23.0001ZM12 3.85757C11.3131 3.85757 10.6364 4.06396 10.0505 4.47673L4.73737 8.21236C4.16162 8.61482 3.81818 9.28558 3.81818 9.99762V18.3563C3.81818 19.8939 5.0404 21.1529 6.55556 21.1529H17.303C18.8889 21.1529 20.1818 19.832 20.1818 18.2119V10.0079C20.1818 9.2959 19.8384 8.62514 19.2626 8.22268L13.9495 4.48705C13.3636 4.07427 12.6869 3.86789 12 3.86789V3.85757Z" fill="#DEDAD3"/>
        <path d="M13.6162 14.0635C13.6162 13.1516 12.8926 12.4124 12 12.4124C11.1074 12.4124 10.3839 13.1516 10.3839 14.0635V16.8497C10.3839 17.7616 11.1074 18.5008 12 18.5008C12.8926 18.5008 13.6162 17.7616 13.6162 16.8497V14.0635Z" fill="#DEDAD3"/>
    </g>
    <defs>
        <clipPath id="clip0_23_528">
            <rect width="24" height="24" fill="white"/>
        </clipPath>
    </defs>
</svg>
