<svg width="24" height="24" viewBox="0 0 24 24" fill="none" xmlns="http://www.w3.org/2000/svg">
    <path d="M12 22.8C5.98997 22.8 1.09998 17.91 1.09998 11.9C1.09998 5.89 5.98997 1 12 1C18.01 1 22.9 5.89 22.9 11.9C22.9 17.91 18.01 22.8 12 22.8ZM12 2.8C6.97998 2.8 2.89998 6.88 2.89998 11.9C2.89998 16.92 6.97998 21 12 21C17.02 21 21.1 16.92 21.1 11.9C21.1 6.88 17.02 2.8 12 2.8Z" fill="#DEDAD3"/>
    <circle cx="12" cy="12" r="1" fill="#DEDAD3"/>
    <circle cx="8" cy="12" r="1" fill="#DEDAD3"/>
    <circle cx="16" cy="12" r="1" fill="#DEDAD3"/>
</svg>
