<svg width="24" height="24" viewBox="0 0 24 24" fill="none" xmlns="http://www.w3.org/2000/svg">
    <g clip-path="url(#clip0_32_239)">
        <path fill-rule="evenodd" clip-rule="evenodd" d="M11.9 22.8C17.9199 22.8 22.8 17.9199 22.8 11.9C22.8 5.8801 17.9199 1 11.9 1C5.8801 1 1 5.8801 1 11.9C1 17.9199 5.8801 22.8 11.9 22.8ZM12 13C12.5523 13 13 12.5523 13 12C13 11.4477 12.5523 11 12 11C11.4477 11 11 11.4477 11 12C11 12.5523 11.4477 13 12 13ZM9 12C9 12.5523 8.55228 13 8 13C7.44772 13 7 12.5523 7 12C7 11.4477 7.44772 11 8 11C8.55228 11 9 11.4477 9 12ZM16 13C16.5523 13 17 12.5523 17 12C17 11.4477 16.5523 11 16 11C15.4477 11 15 11.4477 15 12C15 12.5523 15.4477 13 16 13Z" fill="#2A2A2A"/>
    </g>
    <defs>
        <clipPath id="clip0_32_239">
            <rect width="24" height="24" fill="white"/>
        </clipPath>
    </defs>
</svg>
